<svg xmlns="http://www.w3.org/2000/svg" viewBox="0 0 50 50">
	<path fill="#cb6be6" d="M0 28V0h7v21h12v7ZM25 0h25v7H25ZM0 43h25v7H0ZM34.687 49.997c-.607 0-1.316-.023-2.109-.067a18.543 18.543 0 0 1-2.006-.2v-4.711a16.489 16.489 0 0 0 1.775.295 17.571 17.571 0 0 0 1.9.1 12.873 12.873 0 0 0 5.9-1.1 6.252 6.252 0 0 0 2.925-3.06 13.006 13.006 0 0 0 .971-4.525h-.249a8.509 8.509 0 0 1-1.431 1.644 6.012 6.012 0 0 1-2.1 1.16 10.406 10.406 0 0 1-3.238.429 9.527 9.527 0 0 1-4.544-1.036 7.208 7.208 0 0 1-2.988-3.005 10.012 10.012 0 0 1-1.052-4.763 10.135 10.135 0 0 1 1.264-5.181 8.424 8.424 0 0 1 3.6-3.318 12.364 12.364 0 0 1 5.519-1.162 12.8 12.8 0 0 1 4.366.732 9.816 9.816 0 0 1 3.561 2.233 10.259 10.259 0 0 1 2.392 3.8A15.593 15.593 0 0 1 50 33.681a29.455 29.455 0 0 1-.387 4.753 17.23 17.23 0 0 1-1.348 4.44 11.7 11.7 0 0 1-2.7 3.688 12.194 12.194 0 0 1-4.408 2.52 20.287 20.287 0 0 1-6.47.915Zm4.262-23.786a4.2 4.2 0 0 0-3.072 1.186 5.032 5.032 0 0 0-1.19 3.69 4.733 4.733 0 0 0 1.023 3.19 3.925 3.925 0 0 0 3.114 1.179 5.183 5.183 0 0 0 2.506-.581 4.613 4.613 0 0 0 1.661-1.463 3.23 3.23 0 0 0 .6-1.816 6.506 6.506 0 0 0-.293-1.92 5.6 5.6 0 0 0-.877-1.729 4.5 4.5 0 0 0-1.451-1.256 4.148 4.148 0 0 0-2.021-.477Z" />
</svg>
